<mxfile host="Electron" modified="2023-06-16T08:48:31.832Z" agent="Mozilla/5.0 (Windows NT 10.0; Win64; x64) AppleWebKit/537.36 (KHTML, like Gecko) draw.io/21.3.7 Chrome/112.0.5615.204 Electron/24.5.0 Safari/537.36" etag="bqquy3wHsrptt5cTDat4" version="21.3.7" type="device">
  <diagram id="C5RBs43oDa-KdzZeNtuy" name="Page-1">
    <mxGraphModel dx="504" dy="302" grid="1" gridSize="10" guides="1" tooltips="1" connect="1" arrows="1" fold="1" page="1" pageScale="1" pageWidth="1169" pageHeight="1654" background="none" math="0" shadow="0">
      <root>
        <mxCell id="WIyWlLk6GJQsqaUBKTNV-0" />
        <mxCell id="WIyWlLk6GJQsqaUBKTNV-1" parent="WIyWlLk6GJQsqaUBKTNV-0" />
        <mxCell id="a2rnx0ZKfVZahNXHIYzf-8" value="&lt;p style=&quot;margin: 0px 0px 0px 8px;&quot;&gt;&lt;br&gt;&lt;/p&gt;" style="verticalAlign=top;align=center;overflow=fill;fontSize=12;fontFamily=Helvetica;html=1;whiteSpace=wrap;rounded=0;glass=0;shadow=0;movable=1;resizable=1;rotatable=1;deletable=1;editable=1;locked=0;connectable=1;direction=south;" parent="WIyWlLk6GJQsqaUBKTNV-1" vertex="1">
          <mxGeometry x="361" y="200" width="490" height="660" as="geometry" />
        </mxCell>
        <mxCell id="SC4LUai35NuD-L9s-L-P-5" style="edgeStyle=orthogonalEdgeStyle;rounded=0;orthogonalLoop=1;jettySize=auto;html=1;exitX=0.5;exitY=1;exitDx=0;exitDy=0;" parent="WIyWlLk6GJQsqaUBKTNV-1" source="a2rnx0ZKfVZahNXHIYzf-9" target="a2rnx0ZKfVZahNXHIYzf-10" edge="1">
          <mxGeometry relative="1" as="geometry" />
        </mxCell>
        <mxCell id="a2rnx0ZKfVZahNXHIYzf-9" value="" style="ellipse;html=1;shape=endState;fillColor=#000000;strokeColor=#ff0000;" parent="WIyWlLk6GJQsqaUBKTNV-1" vertex="1">
          <mxGeometry x="582.5" y="235" width="25" height="30" as="geometry" />
        </mxCell>
        <mxCell id="SC4LUai35NuD-L9s-L-P-6" style="edgeStyle=orthogonalEdgeStyle;rounded=0;orthogonalLoop=1;jettySize=auto;html=1;exitX=0.5;exitY=1;exitDx=0;exitDy=0;entryX=0.5;entryY=0;entryDx=0;entryDy=0;" parent="WIyWlLk6GJQsqaUBKTNV-1" source="a2rnx0ZKfVZahNXHIYzf-10" target="a2rnx0ZKfVZahNXHIYzf-17" edge="1">
          <mxGeometry relative="1" as="geometry" />
        </mxCell>
        <mxCell id="a2rnx0ZKfVZahNXHIYzf-10" value="&lt;font style=&quot;font-size: 7px;&quot;&gt;&amp;nbsp;Input UserName&lt;br&gt;Password&lt;/font&gt;" style="rounded=1;whiteSpace=wrap;html=1;arcSize=40;fontColor=#000000;fillColor=#ffffc0;strokeColor=#ff0000;" parent="WIyWlLk6GJQsqaUBKTNV-1" vertex="1">
          <mxGeometry x="552.5" y="310" width="85" height="40" as="geometry" />
        </mxCell>
        <mxCell id="SgabPXH9dqTlCz8hwOUW-0" style="edgeStyle=orthogonalEdgeStyle;rounded=0;orthogonalLoop=1;jettySize=auto;html=1;exitX=0.5;exitY=0;exitDx=0;exitDy=0;entryX=0;entryY=0.5;entryDx=0;entryDy=0;" parent="WIyWlLk6GJQsqaUBKTNV-1" source="a2rnx0ZKfVZahNXHIYzf-12" target="a2rnx0ZKfVZahNXHIYzf-10" edge="1">
          <mxGeometry relative="1" as="geometry" />
        </mxCell>
        <mxCell id="a2rnx0ZKfVZahNXHIYzf-12" value="&lt;font style=&quot;font-size: 7px;&quot;&gt;Display:&lt;br&gt;&lt;p class=&quot;MsoNormal&quot;&gt;&quot;Invalid username or password, please re-enter!&quot;&lt;/p&gt;&lt;/font&gt;" style="rounded=1;whiteSpace=wrap;html=1;arcSize=40;fontColor=#000000;fillColor=#ffffc0;strokeColor=#ff0000;" parent="WIyWlLk6GJQsqaUBKTNV-1" vertex="1">
          <mxGeometry x="370" y="435" width="120" height="45" as="geometry" />
        </mxCell>
        <mxCell id="a2rnx0ZKfVZahNXHIYzf-13" value="&lt;font style=&quot;font-size: 7px;&quot;&gt;&lt;p class=&quot;MsoNormal&quot;&gt;display&lt;/p&gt;&lt;p class=&quot;MsoNormal&quot;&gt;&quot;Username, password does not exist&quot;&lt;/p&gt;&lt;/font&gt;" style="rounded=1;whiteSpace=wrap;html=1;arcSize=40;fontColor=#000000;fillColor=#ffffc0;strokeColor=#ff0000;" parent="WIyWlLk6GJQsqaUBKTNV-1" vertex="1">
          <mxGeometry x="720" y="545" width="120" height="40" as="geometry" />
        </mxCell>
        <mxCell id="SC4LUai35NuD-L9s-L-P-7" style="edgeStyle=orthogonalEdgeStyle;rounded=0;orthogonalLoop=1;jettySize=auto;html=1;exitX=0.5;exitY=1;exitDx=0;exitDy=0;entryX=0.5;entryY=0;entryDx=0;entryDy=0;" parent="WIyWlLk6GJQsqaUBKTNV-1" source="a2rnx0ZKfVZahNXHIYzf-17" target="a2rnx0ZKfVZahNXHIYzf-23" edge="1">
          <mxGeometry relative="1" as="geometry" />
        </mxCell>
        <mxCell id="SC4LUai35NuD-L9s-L-P-17" value="&lt;font style=&quot;font-size: 6px;&quot;&gt;[Correct UserName/Password]&lt;/font&gt;" style="edgeLabel;html=1;align=center;verticalAlign=middle;resizable=0;points=[];" parent="SC4LUai35NuD-L9s-L-P-7" vertex="1" connectable="0">
          <mxGeometry x="-0.2633" relative="1" as="geometry">
            <mxPoint x="45" as="offset" />
          </mxGeometry>
        </mxCell>
        <mxCell id="SC4LUai35NuD-L9s-L-P-15" style="edgeStyle=orthogonalEdgeStyle;rounded=0;orthogonalLoop=1;jettySize=auto;html=1;exitX=0;exitY=0.5;exitDx=0;exitDy=0;" parent="WIyWlLk6GJQsqaUBKTNV-1" source="a2rnx0ZKfVZahNXHIYzf-17" target="a2rnx0ZKfVZahNXHIYzf-12" edge="1">
          <mxGeometry relative="1" as="geometry">
            <Array as="points">
              <mxPoint x="460" y="455" />
              <mxPoint x="460" y="455" />
            </Array>
          </mxGeometry>
        </mxCell>
        <mxCell id="SC4LUai35NuD-L9s-L-P-16" value="&lt;font style=&quot;font-size: 6px;&quot;&gt;[Incorrect UserName/&lt;br&gt;Password]&lt;br&gt;&lt;/font&gt;" style="edgeLabel;html=1;align=center;verticalAlign=middle;resizable=0;points=[];" parent="SC4LUai35NuD-L9s-L-P-15" vertex="1" connectable="0">
          <mxGeometry x="-0.0169" y="-1" relative="1" as="geometry">
            <mxPoint x="7" y="-14" as="offset" />
          </mxGeometry>
        </mxCell>
        <mxCell id="a2rnx0ZKfVZahNXHIYzf-17" value="" style="rhombus;whiteSpace=wrap;html=1;fontColor=#000000;fillColor=#ffffc0;strokeColor=#ff0000;" parent="WIyWlLk6GJQsqaUBKTNV-1" vertex="1">
          <mxGeometry x="555" y="420" width="80" height="70" as="geometry" />
        </mxCell>
        <mxCell id="a2rnx0ZKfVZahNXHIYzf-20" style="edgeStyle=orthogonalEdgeStyle;rounded=0;orthogonalLoop=1;jettySize=auto;html=1;exitX=0.5;exitY=1;exitDx=0;exitDy=0;" parent="WIyWlLk6GJQsqaUBKTNV-1" source="a2rnx0ZKfVZahNXHIYzf-17" target="a2rnx0ZKfVZahNXHIYzf-17" edge="1">
          <mxGeometry relative="1" as="geometry" />
        </mxCell>
        <mxCell id="0r2egga7RUnXf-yBT4_m-7" style="edgeStyle=orthogonalEdgeStyle;rounded=0;orthogonalLoop=1;jettySize=auto;html=1;exitX=0.5;exitY=1;exitDx=0;exitDy=0;entryX=1;entryY=0.5;entryDx=0;entryDy=0;" parent="WIyWlLk6GJQsqaUBKTNV-1" source="a2rnx0ZKfVZahNXHIYzf-29" target="a2rnx0ZKfVZahNXHIYzf-34" edge="1">
          <mxGeometry relative="1" as="geometry">
            <mxPoint x="727.06" y="794.24" as="targetPoint" />
          </mxGeometry>
        </mxCell>
        <mxCell id="a2rnx0ZKfVZahNXHIYzf-29" value="&lt;font style=&quot;font-size: 7px;&quot;&gt;Show menu casher&lt;/font&gt;" style="rounded=1;whiteSpace=wrap;html=1;arcSize=40;fontColor=#000000;fillColor=#ffffc0;strokeColor=#ff0000;" parent="WIyWlLk6GJQsqaUBKTNV-1" vertex="1">
          <mxGeometry x="680" y="740" width="90" height="30" as="geometry" />
        </mxCell>
        <mxCell id="0r2egga7RUnXf-yBT4_m-2" style="edgeStyle=orthogonalEdgeStyle;rounded=0;orthogonalLoop=1;jettySize=auto;html=1;exitX=0.5;exitY=1;exitDx=0;exitDy=0;entryX=-0.026;entryY=0.589;entryDx=0;entryDy=0;entryPerimeter=0;" parent="WIyWlLk6GJQsqaUBKTNV-1" source="a2rnx0ZKfVZahNXHIYzf-30" target="a2rnx0ZKfVZahNXHIYzf-34" edge="1">
          <mxGeometry relative="1" as="geometry">
            <mxPoint x="458.9100000000001" y="794.3699999999999" as="targetPoint" />
          </mxGeometry>
        </mxCell>
        <mxCell id="a2rnx0ZKfVZahNXHIYzf-30" value="&lt;font style=&quot;font-size: 7px;&quot;&gt;Show menu seller&lt;/font&gt;" style="rounded=1;whiteSpace=wrap;html=1;arcSize=40;fontColor=#000000;fillColor=#ffffc0;strokeColor=#ff0000;" parent="WIyWlLk6GJQsqaUBKTNV-1" vertex="1">
          <mxGeometry x="420" y="740" width="80" height="30" as="geometry" />
        </mxCell>
        <mxCell id="a2rnx0ZKfVZahNXHIYzf-34" value="" style="ellipse;html=1;shape=endState;fillColor=#000000;strokeColor=#ff0000;" parent="WIyWlLk6GJQsqaUBKTNV-1" vertex="1">
          <mxGeometry x="580" y="812" width="30" height="30" as="geometry" />
        </mxCell>
        <mxCell id="SC4LUai35NuD-L9s-L-P-8" style="edgeStyle=orthogonalEdgeStyle;rounded=0;orthogonalLoop=1;jettySize=auto;html=1;exitX=0.5;exitY=1;exitDx=0;exitDy=0;entryX=0.5;entryY=0;entryDx=0;entryDy=0;" parent="WIyWlLk6GJQsqaUBKTNV-1" source="a2rnx0ZKfVZahNXHIYzf-23" target="a2rnx0ZKfVZahNXHIYzf-24" edge="1">
          <mxGeometry relative="1" as="geometry" />
        </mxCell>
        <mxCell id="SC4LUai35NuD-L9s-L-P-19" value="&lt;font style=&quot;font-size: 6px;&quot;&gt;[Exists in database]&lt;/font&gt;" style="edgeLabel;html=1;align=center;verticalAlign=middle;resizable=0;points=[];" parent="SC4LUai35NuD-L9s-L-P-8" vertex="1" connectable="0">
          <mxGeometry x="-0.3164" relative="1" as="geometry">
            <mxPoint x="35" as="offset" />
          </mxGeometry>
        </mxCell>
        <mxCell id="SC4LUai35NuD-L9s-L-P-14" style="edgeStyle=orthogonalEdgeStyle;rounded=0;orthogonalLoop=1;jettySize=auto;html=1;exitX=1;exitY=0.5;exitDx=0;exitDy=0;entryX=0;entryY=0.5;entryDx=0;entryDy=0;" parent="WIyWlLk6GJQsqaUBKTNV-1" source="a2rnx0ZKfVZahNXHIYzf-23" target="a2rnx0ZKfVZahNXHIYzf-13" edge="1">
          <mxGeometry relative="1" as="geometry" />
        </mxCell>
        <mxCell id="SC4LUai35NuD-L9s-L-P-18" value="&lt;font style=&quot;font-size: 6px;&quot;&gt;[Not available in database]&lt;/font&gt;" style="edgeLabel;html=1;align=center;verticalAlign=middle;resizable=0;points=[];" parent="SC4LUai35NuD-L9s-L-P-14" vertex="1" connectable="0">
          <mxGeometry x="-0.1189" relative="1" as="geometry">
            <mxPoint y="-20" as="offset" />
          </mxGeometry>
        </mxCell>
        <mxCell id="a2rnx0ZKfVZahNXHIYzf-23" value="" style="rhombus;whiteSpace=wrap;html=1;fontColor=#000000;fillColor=#ffffc0;strokeColor=#ff0000;" parent="WIyWlLk6GJQsqaUBKTNV-1" vertex="1">
          <mxGeometry x="555" y="530" width="80" height="70" as="geometry" />
        </mxCell>
        <mxCell id="SC4LUai35NuD-L9s-L-P-9" style="edgeStyle=orthogonalEdgeStyle;rounded=0;orthogonalLoop=1;jettySize=auto;html=1;exitX=1;exitY=0.5;exitDx=0;exitDy=0;entryX=0.5;entryY=0;entryDx=0;entryDy=0;" parent="WIyWlLk6GJQsqaUBKTNV-1" source="a2rnx0ZKfVZahNXHIYzf-24" target="a2rnx0ZKfVZahNXHIYzf-29" edge="1">
          <mxGeometry relative="1" as="geometry" />
        </mxCell>
        <mxCell id="SC4LUai35NuD-L9s-L-P-21" value="[Is casher]" style="edgeLabel;html=1;align=center;verticalAlign=middle;resizable=0;points=[];" parent="SC4LUai35NuD-L9s-L-P-9" vertex="1" connectable="0">
          <mxGeometry x="-0.5082" relative="1" as="geometry">
            <mxPoint x="6" y="-15" as="offset" />
          </mxGeometry>
        </mxCell>
        <mxCell id="SC4LUai35NuD-L9s-L-P-10" style="edgeStyle=orthogonalEdgeStyle;rounded=0;orthogonalLoop=1;jettySize=auto;html=1;exitX=0;exitY=0.5;exitDx=0;exitDy=0;entryX=0.5;entryY=0;entryDx=0;entryDy=0;" parent="WIyWlLk6GJQsqaUBKTNV-1" source="a2rnx0ZKfVZahNXHIYzf-24" target="a2rnx0ZKfVZahNXHIYzf-30" edge="1">
          <mxGeometry relative="1" as="geometry" />
        </mxCell>
        <mxCell id="SC4LUai35NuD-L9s-L-P-20" value="[Is seller]" style="edgeLabel;html=1;align=center;verticalAlign=middle;resizable=0;points=[];" parent="SC4LUai35NuD-L9s-L-P-10" vertex="1" connectable="0">
          <mxGeometry x="-0.5269" y="-1" relative="1" as="geometry">
            <mxPoint y="-14" as="offset" />
          </mxGeometry>
        </mxCell>
        <mxCell id="a2rnx0ZKfVZahNXHIYzf-24" value="" style="rhombus;whiteSpace=wrap;html=1;fontColor=#000000;fillColor=#ffffc0;strokeColor=#ff0000;" parent="WIyWlLk6GJQsqaUBKTNV-1" vertex="1">
          <mxGeometry x="555" y="650" width="80" height="70" as="geometry" />
        </mxCell>
        <mxCell id="SgabPXH9dqTlCz8hwOUW-2" value="" style="line;strokeWidth=1;fillColor=none;align=left;verticalAlign=middle;spacingTop=-1;spacingLeft=3;spacingRight=3;rotatable=0;labelPosition=right;points=[];portConstraint=eastwest;strokeColor=inherit;" parent="WIyWlLk6GJQsqaUBKTNV-1" vertex="1">
          <mxGeometry x="360" y="220" width="490" height="8" as="geometry" />
        </mxCell>
        <mxCell id="SgabPXH9dqTlCz8hwOUW-3" value="Login" style="text;align=center;fontStyle=1;verticalAlign=middle;spacingLeft=3;spacingRight=3;strokeColor=none;rotatable=0;points=[[0,0.5],[1,0.5]];portConstraint=eastwest;html=1;" parent="WIyWlLk6GJQsqaUBKTNV-1" vertex="1">
          <mxGeometry x="565" y="200" width="80" height="26" as="geometry" />
        </mxCell>
        <mxCell id="YkfAFWWJKgedrjCpOOeX-1" value="&lt;font style=&quot;font-size: 9px;&quot;&gt;User must have at least 6 characters, password must be at least 8 characters&lt;/font&gt;" style="shape=callout;whiteSpace=wrap;html=1;perimeter=calloutPerimeter;fillColor=#fff2cc;strokeColor=#d6b656;" vertex="1" parent="WIyWlLk6GJQsqaUBKTNV-1">
          <mxGeometry x="420" y="520" width="120" height="80" as="geometry" />
        </mxCell>
      </root>
    </mxGraphModel>
  </diagram>
</mxfile>
